<?xml version="1.0" encoding="utf-8"?>
<!-- Generator: Adobe Illustrator 24.1.0, SVG Export Plug-In . SVG Version: 6.00 Build 0)  -->
<svg version="1.2" baseProfile="tiny" id="Слой_1"
	 xmlns="http://www.w3.org/2000/svg" xmlns:xlink="http://www.w3.org/1999/xlink" x="0px" y="0px" viewBox="0 0 64 32"
	 xml:space="preserve">
<path fill="#FFFFFF" d="M49.9,16l9.5-9.5c0.5-0.5,0.5-1.2,0-1.7l-0.2-0.2c-0.5-0.5-1.2-0.5-1.7,0L48,14.1l-9.5-9.5
	c-0.5-0.5-1.2-0.5-1.7,0l-0.2,0.2c-0.5,0.5-0.5,1.2,0,1.7l9.5,9.5l-9.5,9.5c-0.5,0.5-0.5,1.2,0,1.7l0.2,0.2c0.5,0.5,1.2,0.5,1.7,0
	l9.5-9.5l9.5,9.5c0.5,0.5,1.2,0.5,1.7,0l0.2-0.2c0.5-0.5,0.5-1.2,0-1.7L49.9,16z"/>
<g>
	<path fill="#FFFFFF" d="M30.8,7.9H1.2C0.5,7.9,0,8.5,0,9.1v0.3c0,0.6,0.5,1.2,1.2,1.2h29.6c0.6,0,1.2-0.5,1.2-1.2V9.1
		C32,8.5,31.5,7.9,30.8,7.9z"/>
	<path fill="#FFFFFF" d="M30.8,14.7H1.2c-0.6,0-1.2,0.5-1.2,1.2v0.3c0,0.6,0.5,1.2,1.2,1.2h29.6c0.6,0,1.2-0.5,1.2-1.2v-0.3
		C32,15.2,31.5,14.7,30.8,14.7z"/>
	<path fill="#FFFFFF" d="M30.8,21.4H10.5c-0.6,0-1.2,0.5-1.2,1.2v0.3c0,0.6,0.5,1.2,1.2,1.2h20.3c0.6,0,1.2-0.5,1.2-1.2v-0.3
		C32,21.9,31.5,21.4,30.8,21.4z"/>
</g>
</svg>
