<?xml version="1.0" encoding="utf-8"?>
<!-- Generator: Adobe Illustrator 24.1.0, SVG Export Plug-In . SVG Version: 6.00 Build 0)  -->
<svg version="1.2" baseProfile="tiny" id="Слой_1"
	 xmlns="http://www.w3.org/2000/svg" xmlns:xlink="http://www.w3.org/1999/xlink" x="0px" y="0px" viewBox="0 0 72 24"
	 xml:space="preserve">
<g id="nHAlll.tif">
	<g>
		<path fill="#6E6E6E" d="M35.2,0c0.5,0,1,0,1.5,0c0.1,0,0.1,0,0.2,0c0.7,0.1,1.5,0.2,2.2,0.4c4.4,1.2,7.9,5,8.7,9.5
			c0.1,0.4,0.1,0.9,0.2,1.3c0,0.5,0,1,0,1.5c0,0.3-0.1,0.6-0.1,0.9c-0.4,2.8-1.6,5.2-3.7,7.2c-3,2.8-6.6,3.8-10.6,3
			c-3.1-0.6-5.6-2.3-7.4-4.9c-1.8-2.7-2.5-5.6-1.9-8.8c0.4-2.5,1.5-4.6,3.3-6.4c1.8-1.8,3.9-2.9,6.5-3.4C34.3,0.1,34.7,0.1,35.2,0z
			 M35.7,15.8C35.8,15.8,35.8,15.8,35.7,15.8c1,0.7,1.9,1.4,2.9,2.1c0.7,0.5,1.1,0.3,1.3-0.5c0.4-2,0.8-3.9,1.3-5.9
			c0.2-1.1,0.5-2.2,0.7-3.3C42,7.9,42,7.5,41.7,7.3c-0.3-0.2-0.6-0.1-0.9,0c-2.9,1.1-5.7,2.2-8.6,3.3c-1,0.4-2,0.8-2.9,1.1
			c-0.2,0.1-0.5,0.2-0.4,0.5c0,0.3,0.3,0.3,0.5,0.4c0.9,0.3,1.8,0.6,2.7,0.8c0.2,0.1,0.3,0,0.4-0.1c1.6-1,3.1-2,4.7-2.9
			c0.7-0.4,1.3-0.8,2-1.2c0.1-0.1,0.3-0.2,0.5,0c-0.1,0.1-0.2,0.2-0.3,0.3c-1.7,1.6-3.5,3.1-5.2,4.7C34,14.3,34,14.5,34,14.7
			c0,0.6-0.1,1.1-0.1,1.7c0,0.4,0,0.7-0.1,1.1c0,0,0,0,0.1,0.1c0.2-0.1,0.4-0.2,0.5-0.3C34.8,16.8,35.2,16.3,35.7,15.8z"/>
	</g>
</g>
<g id="nHAlll.tif_2_">
	<g>
		<path d="M11,0c0.5,0,1,0,1.5,0c0.1,0,0.1,0,0.2,0c0.7,0.1,1.5,0.2,2.2,0.4c4.4,1.2,7.9,5,8.7,9.5c0.1,0.4,0.1,0.9,0.2,1.3
			c0,0.5,0,1,0,1.5c0,0.3-0.1,0.6-0.1,0.9c-0.4,2.8-1.6,5.2-3.7,7.2c-3,2.8-6.6,3.8-10.6,3c-3.1-0.6-5.6-2.3-7.4-4.9
			c-1.8-2.7-2.5-5.6-1.9-8.8c0.4-2.5,1.5-4.6,3.3-6.4s3.9-2.9,6.5-3.4C10.1,0.1,10.5,0.1,11,0z M11.5,15.8
			C11.6,15.8,11.6,15.8,11.5,15.8c1,0.7,1.9,1.4,2.9,2.1c0.7,0.5,1.1,0.3,1.3-0.5c0.4-2,0.8-3.9,1.3-5.9c0.2-1.1,0.5-2.2,0.7-3.3
			c0.1-0.3,0.1-0.7-0.2-0.9c-0.3-0.2-0.6-0.1-0.9,0c-2.9,1.1-5.7,2.2-8.6,3.3c-1,0.4-2,0.8-2.9,1.1c-0.2,0.1-0.5,0.2-0.4,0.5
			c0,0.3,0.3,0.3,0.5,0.4c0.9,0.3,1.8,0.6,2.7,0.8c0.2,0.1,0.3,0,0.4-0.1c1.6-1,3.1-2,4.7-2.9c0.7-0.4,1.3-0.8,2-1.2
			c0.1-0.1,0.3-0.2,0.5,0c-0.1,0.1-0.2,0.2-0.3,0.3c-1.7,1.6-3.5,3.1-5.2,4.7c-0.2,0.1-0.2,0.3-0.2,0.5c0,0.6-0.1,1.1-0.1,1.7
			c0,0.4,0,0.7-0.1,1.1c0,0,0,0,0.1,0.1c0.2-0.1,0.4-0.2,0.5-0.3C10.6,16.8,11,16.3,11.5,15.8z"/>
	</g>
</g>
<g id="nHAlll.tif_1_">
	<g>
		<path fill="#D83E1A" d="M59,0c0.5,0,1,0,1.5,0c0.1,0,0.1,0,0.2,0c0.7,0.1,1.5,0.2,2.2,0.4c4.4,1.2,7.9,5,8.7,9.5
			c0.1,0.4,0.1,0.9,0.2,1.3c0,0.5,0,1,0,1.5c0,0.3-0.1,0.6-0.1,0.9c-0.4,2.8-1.6,5.2-3.7,7.2c-3,2.8-6.6,3.8-10.6,3
			c-3.1-0.6-5.6-2.3-7.4-4.9c-1.8-2.7-2.5-5.6-1.9-8.8c0.4-2.5,1.5-4.6,3.3-6.4c1.8-1.8,3.9-2.9,6.5-3.4C58.1,0.1,58.5,0.1,59,0z
			 M59.5,15.8C59.6,15.8,59.6,15.8,59.5,15.8c1,0.7,1.9,1.4,2.9,2.1c0.7,0.5,1.1,0.3,1.3-0.5c0.4-2,0.8-3.9,1.3-5.9
			c0.2-1.1,0.5-2.2,0.7-3.3c0.1-0.3,0.1-0.7-0.2-0.9c-0.3-0.2-0.6-0.1-0.9,0c-2.9,1.1-5.7,2.2-8.6,3.3c-1,0.4-2,0.8-2.9,1.1
			c-0.2,0.1-0.5,0.2-0.4,0.5c0,0.3,0.3,0.3,0.5,0.4c0.9,0.3,1.8,0.6,2.7,0.8c0.2,0.1,0.3,0,0.4-0.1c1.6-1,3.1-2,4.7-2.9
			c0.7-0.4,1.3-0.8,2-1.2c0.1-0.1,0.3-0.2,0.5,0c-0.1,0.1-0.2,0.2-0.3,0.3c-1.7,1.6-3.5,3.1-5.2,4.7c-0.2,0.1-0.2,0.3-0.2,0.5
			c0,0.6-0.1,1.1-0.1,1.7c0,0.4,0,0.7-0.1,1.1c0,0,0,0,0.1,0.1c0.2-0.1,0.4-0.2,0.5-0.3C58.6,16.8,59,16.3,59.5,15.8z"/>
	</g>
</g>
</svg>
