<?xml version="1.0" encoding="utf-8"?>
<!-- Generator: Adobe Illustrator 24.1.0, SVG Export Plug-In . SVG Version: 6.00 Build 0)  -->
<svg version="1.2" baseProfile="tiny" id="Слой_1"
	 xmlns="http://www.w3.org/2000/svg" xmlns:xlink="http://www.w3.org/1999/xlink" x="0px" y="0px" viewBox="0 0 48 24"
	 xml:space="preserve">
<path d="M23.8,6.4C23.6,6.2,23.2,6,22.9,6l-6.3,0C13,6,5.3,6,5.3,6L5.2,5.4c0,0-0.5-1.9-0.8-2.8C4.3,1.8,3.8,1.5,3,1.5l-1.5,0
	c-0.3,0-0.6,0-0.9,0C0.2,1.5,0.1,1.6,0,1.7v0.2c0.1,0.2,0.2,0.3,0.5,0.3c0,0,0.5,0,0.8,0l1.6,0c0.6,0,0.7,0.2,0.8,0.7
	c1.1,3.9,3.4,12.5,3.4,12.5l-0.4,0l-0.2,0c-0.5,0.1-1,0.3-1.3,0.7c-0.3,0.4-0.4,0.9-0.4,1.4c0.2,1,0.9,1.6,1.9,1.6h1.6
	c0,0-0.2,0.4-0.3,0.5c-0.4,0.9-0.2,2.1,0.8,2.8c0.4,0.3,0.8,0.4,1.2,0.4c0.4,0,0.8-0.1,1.2-0.4c1-0.7,1.3-1.7,0.8-2.7
	c-0.1-0.1-0.4-0.5-0.4-0.5h5.9c0,0-0.2,0.4-0.3,0.5c-0.4,0.7-0.2,2.1,0.7,2.7c0.4,0.3,0.8,0.4,1.3,0.4c0.4,0,0.8-0.1,1.1-0.3
	c1-0.7,1.2-1.6,0.8-2.8L21,19.2l0.4,0c0,0,0,0,0,0h0.1c0.2,0,0.4-0.2,0.4-0.4c0-0.2-0.2-0.4-0.4-0.4h-0.3h-1H7c-0.1,0-0.2,0-0.4,0
	c-0.6-0.1-1.1-0.6-1.1-1.2c0-0.6,0.4-1.1,1.1-1.2c0.1,0,0.3,0,0.4,0c4.3,0,8.6,0,12.9,0h0.9c0.7,0,1.2-0.4,1.4-1.1
	c0.6-2.5,1.2-5.1,1.8-7.6C24,7,24,6.7,23.8,6.4z M19.3,19.1L19.3,19.1c0.8,0,1.5,0.7,1.5,1.5c0,0.4-0.1,0.8-0.4,1
	c-0.3,0.3-0.7,0.4-1.1,0.4c-0.4,0-0.8-0.2-1.1-0.4c-0.3-0.3-0.4-0.6-0.4-1C17.9,19.8,18.5,19.1,19.3,19.1z M10.1,19.1
	c0.8,0,1.4,0.6,1.5,1.4c0,0.4-0.1,0.8-0.4,1c-0.3,0.3-0.7,0.4-1.1,0.4c-0.4,0-0.8-0.2-1-0.4c-0.3-0.3-0.4-0.6-0.4-1
	C8.7,19.8,9.3,19.1,10.1,19.1z M14.4,6.7v4h-3.1l-0.3,0l-0.5-4H14.4z M5.6,6.7l4.1,0l0.5,4l-3.5,0L5.6,6.7z M7.9,15.4l-1-4l3.4,0
	l0.6,4L7.9,15.4z M14.4,15.4h-2.8l-0.5-4h3.4V15.4z M17.9,15.4h-2.8l0-4h3.4L17.9,15.4z M15.1,10.7v-4l4,0l-0.5,4H15.1z M22.2,12.2
	c-0.1,0.4-0.2,0.9-0.3,1.3c-0.1,0.4-0.2,0.8-0.3,1.3c-0.1,0.4-0.4,0.6-0.8,0.6h-2.2l0.1-1.2c0.1-0.8,0.3-2.3,0.3-2.3l0.1-0.5
	c0,0,1.9,0,2.7,0h0.5L22.2,12.2z M23.3,7.4c-0.3,1.1-0.4,1.9-0.7,3l-0.1,0.3h-3.3l0.5-3.5l0.1-0.5c0,0,2.1,0,3,0
	C23.1,6.7,23.4,6.9,23.3,7.4z"/>
<path fill="#D83E1A" d="M47.8,6.4C47.6,6.2,47.2,6,46.9,6l-6.3,0C37,6,29.3,6,29.3,6l-0.1-0.5c0,0-0.5-1.9-0.8-2.8
	c-0.2-0.8-0.7-1.2-1.5-1.2l-1.5,0c-0.3,0-0.6,0-0.9,0c-0.3,0-0.4,0.1-0.5,0.3v0.2c0.1,0.2,0.2,0.3,0.5,0.3c0,0,0.5,0,0.8,0l1.6,0
	c0.6,0,0.7,0.2,0.8,0.7c1.1,3.9,3.4,12.5,3.4,12.5l-0.4,0l-0.2,0c-0.5,0.1-1,0.3-1.3,0.7c-0.3,0.4-0.4,0.9-0.4,1.4
	c0.2,1,0.9,1.6,1.9,1.6h1.6c0,0-0.2,0.4-0.3,0.5c-0.4,0.9-0.2,2.1,0.8,2.8c0.4,0.3,0.8,0.4,1.2,0.4c0.4,0,0.8-0.1,1.2-0.4
	c1-0.7,1.3-1.7,0.8-2.7c-0.1-0.1-0.4-0.5-0.4-0.5h5.9c0,0-0.2,0.4-0.3,0.5c-0.4,0.7-0.2,2.1,0.7,2.7c0.4,0.3,0.8,0.4,1.3,0.4
	c0.4,0,0.8-0.1,1.1-0.3c1-0.7,1.2-1.6,0.8-2.8L45,19.2l0.4,0c0,0,0,0,0,0h0.1c0.2,0,0.4-0.2,0.4-0.4c0-0.2-0.2-0.4-0.4-0.4h-0.3h-1
	H31c-0.1,0-0.2,0-0.4,0c-0.6-0.1-1.1-0.6-1.1-1.2c0-0.6,0.4-1.1,1.1-1.2c0.1,0,0.3,0,0.4,0c4.3,0,8.6,0,12.9,0h0.9
	c0.7,0,1.2-0.4,1.4-1.1c0.6-2.5,1.2-5.1,1.8-7.6C48,7,48,6.7,47.8,6.4z M43.3,19.1L43.3,19.1c0.8,0,1.5,0.7,1.5,1.5
	c0,0.4-0.1,0.8-0.4,1c-0.3,0.3-0.7,0.4-1.1,0.4c-0.4,0-0.8-0.2-1.1-0.4c-0.3-0.3-0.4-0.6-0.4-1C41.9,19.8,42.5,19.1,43.3,19.1z
	 M34.1,19.1c0.8,0,1.4,0.6,1.5,1.4c0,0.4-0.1,0.8-0.4,1c-0.3,0.3-0.7,0.4-1.1,0.4c-0.4,0-0.8-0.2-1-0.4c-0.3-0.3-0.4-0.6-0.4-1
	C32.7,19.8,33.3,19.1,34.1,19.1z M38.4,6.7v4h-3.1l-0.3,0l-0.5-4H38.4z M29.6,6.7l4.1,0l0.5,4l-3.5,0L29.6,6.7z M31.9,15.4l-1-4
	l3.4,0l0.6,4L31.9,15.4z M38.4,15.4h-2.8l-0.5-4h3.4V15.4z M41.9,15.4h-2.8l0-4h3.4L41.9,15.4z M39.1,10.7v-4l4,0l-0.5,4H39.1z
	 M46.2,12.2c-0.1,0.4-0.2,0.9-0.3,1.3c-0.1,0.4-0.2,0.8-0.3,1.3c-0.1,0.4-0.4,0.6-0.8,0.6h-2.2l0.1-1.2c0.1-0.8,0.3-2.3,0.3-2.3
	l0.1-0.5c0,0,1.9,0,2.7,0h0.5L46.2,12.2z M47.3,7.4c-0.3,1.1-0.4,1.9-0.7,3l-0.1,0.3h-3.3l0.5-3.5l0.1-0.5c0,0,2.1,0,3,0
	C47.1,6.7,47.4,6.9,47.3,7.4z"/>
</svg>
