<?xml version="1.0" encoding="utf-8"?>
<!-- Generator: Adobe Illustrator 24.1.0, SVG Export Plug-In . SVG Version: 6.00 Build 0)  -->
<svg version="1.1" id="Слой_1" xmlns="http://www.w3.org/2000/svg" xmlns:xlink="http://www.w3.org/1999/xlink" x="0px" y="0px"
	 viewBox="0 0 72 24" style="enable-background:new 0 0 72 24;" xml:space="preserve">
<style type="text/css">
	.st0{fill:#6E6E6E;}
	.st1{fill:#D83E1A;}
</style>
<g>
	<path class="st0" d="M35.4,0c0.4,0,0.8,0,1.2,0c0.1,0,0.1,0,0.2,0C37.9,0.1,39,0.4,40,1c2.5,1.3,4.1,3.2,4.8,5.9
		c0.6,2.3,0.4,4.6-0.8,6.8c-1.1,2-2.7,3.4-4.9,4.3C39,17.9,39,18,38.9,18.1c-0.7,1.7-1.4,3.4-2,5.2c-0.1,0.4-0.3,0.6-0.7,0.7
		c-0.1,0-0.2,0-0.3,0c-0.4-0.1-0.6-0.4-0.7-0.7c-0.7-1.7-1.4-3.4-2-5.1c-0.1-0.2-0.2-0.3-0.4-0.4c-1.2-0.5-2.3-1.2-3.2-2.1
		c-1.7-1.7-2.6-3.8-2.7-6.3c-0.1-2,0.5-3.8,1.6-5.4c1.5-2.2,3.6-3.5,6.2-3.9C34.8,0.1,35.1,0,35.4,0z M39.3,9.2
		c0-1.8-1.5-3.3-3.3-3.3c-1.8,0-3.3,1.5-3.3,3.3c0,1.8,1.5,3.3,3.3,3.4C37.8,12.6,39.3,11.1,39.3,9.2z"/>
</g>
<g>
	<path class="st1" d="M59.3,0c0.4,0,0.8,0,1.2,0c0.1,0,0.1,0,0.2,0C61.8,0.1,62.9,0.4,64,1c2.5,1.3,4.1,3.2,4.8,5.9
		c0.6,2.3,0.4,4.6-0.8,6.8c-1.1,2-2.7,3.4-4.9,4.3c-0.1,0.1-0.2,0.1-0.3,0.3c-0.7,1.7-1.4,3.4-2,5.2c-0.1,0.4-0.3,0.6-0.7,0.7
		c-0.1,0-0.2,0-0.3,0c-0.4-0.1-0.6-0.4-0.7-0.7c-0.7-1.7-1.4-3.4-2-5.1c-0.1-0.2-0.2-0.3-0.4-0.4c-1.2-0.5-2.3-1.2-3.2-2.1
		c-1.7-1.7-2.6-3.8-2.7-6.3c-0.1-2,0.5-3.8,1.6-5.4c1.5-2.2,3.6-3.5,6.2-3.9C58.8,0.1,59.1,0,59.3,0z M63.3,9.2
		c0-1.8-1.5-3.3-3.3-3.3c-1.8,0-3.3,1.5-3.3,3.3c0,1.8,1.5,3.3,3.3,3.4C61.8,12.6,63.3,11.1,63.3,9.2z"/>
</g>
<g>
	<path d="M11.4,0c0.4,0,0.8,0,1.2,0c0.1,0,0.1,0,0.2,0C13.9,0.1,15,0.4,16,1c2.5,1.3,4.1,3.2,4.8,5.9c0.6,2.3,0.4,4.6-0.8,6.8
		c-1.1,2-2.7,3.4-4.9,4.3c-0.1,0.1-0.2,0.1-0.3,0.3c-0.7,1.7-1.4,3.4-2,5.2c-0.1,0.4-0.3,0.6-0.7,0.7c-0.1,0-0.2,0-0.3,0
		c-0.4-0.1-0.6-0.4-0.7-0.7c-0.7-1.7-1.4-3.4-2-5.1C9,18,8.9,17.9,8.7,17.8c-1.2-0.5-2.3-1.2-3.2-2.1C3.8,14,2.9,11.9,2.8,9.4
		C2.7,7.5,3.3,5.7,4.4,4C5.9,1.9,8,0.6,10.6,0.1C10.8,0.1,11.1,0,11.4,0z M15.3,9.2c0-1.8-1.5-3.3-3.3-3.3c-1.8,0-3.3,1.5-3.3,3.3
		c0,1.8,1.5,3.3,3.3,3.4C13.8,12.6,15.3,11.1,15.3,9.2z"/>
</g>
</svg>
