<?xml version="1.0" encoding="utf-8"?>
<!-- Generator: Adobe Illustrator 24.1.0, SVG Export Plug-In . SVG Version: 6.00 Build 0)  -->
<svg version="1.2" baseProfile="tiny" id="Слой_1"
	 xmlns="http://www.w3.org/2000/svg" xmlns:xlink="http://www.w3.org/1999/xlink" x="0px" y="0px" viewBox="0 0 72 24"
	 xml:space="preserve">
<g id="_x32_JUhaz.tif">
	<g>
		<path fill="#6E6E6E" d="M30.5,24c-0.1,0-0.1,0-0.2,0c-0.2-0.1-0.3-0.3-0.3-0.6c0-1.2,0-2.4,0-3.6c0-0.2-0.1-0.3-0.2-0.4
			c-3-1.6-4.5-4.1-4.6-7.5c0-1.2,0-2.3,0-3.5c0-0.6,0-1.2,0.2-1.7C26.2,2.8,29.6,0,33.6,0c1.6,0,3.2,0,4.8,0c0.5,0,1,0,1.5,0.1
			C43.8,0.9,46.5,4,46.8,8c0,1.5,0,3,0,4.5c0,0.3-0.1,0.7-0.1,1c-0.6,3.9-4.1,6.8-8,6.9c-1.4,0-2.8,0-4.2,0c-0.2,0-0.4,0.1-0.6,0.2
			c-1,1-2.1,2.1-3.1,3.1C30.7,23.8,30.6,23.9,30.5,24z M29.3,7.5c0,0.9,0.3,1.7,0.7,2.5c1.2,2.4,3,4.3,5.1,5.8c1,0.7,2,1.3,3.2,1.5
			c0.7,0.2,1.4,0.2,2-0.4c0.4-0.4,0.8-0.8,1.2-1.1c0.5-0.5,0.5-1.3,0-1.8c-0.6-0.6-1.1-1.1-1.7-1.7c-0.7-0.7-1.6-0.5-2,0.4
			c-0.3,0.6-0.9,1-1.6,0.7c-1.4-0.6-2.5-1.6-3-3C33,9.6,33.3,9,34,8.7c0.8-0.3,1-1.3,0.5-1.9c-0.6-0.6-1.2-1.2-1.8-1.8
			c-0.5-0.5-1.3-0.5-1.8,0c-0.3,0.3-0.6,0.6-0.9,0.9C29.5,6.4,29.3,6.9,29.3,7.5z M42.7,8.9c0-1.6-0.6-3-1.8-4.1
			c-1.2-1.1-2.5-1.5-4.1-1.4c-0.3,0-0.5,0.2-0.4,0.5s0.2,0.3,0.5,0.3c0.7,0,1.3,0.1,2,0.3c2.2,0.9,3.5,3.1,3,5.5
			c-0.1,0.3,0,0.5,0.3,0.6s0.4-0.1,0.5-0.4C42.6,9.7,42.7,9.3,42.7,8.9z M37,5.7c1.1,0,2.1,0.5,2.7,1.4c0.4,0.6,0.6,1.4,0.6,2.1
			c0,0.3,0.1,0.5,0.4,0.5c0.3,0,0.4-0.2,0.4-0.4c0-0.1,0-0.1,0-0.2c0.1-1.8-1.1-3.5-2.9-4c-0.5-0.1-1-0.2-1.4-0.1
			c-0.3,0-0.5,0.2-0.5,0.4c0,0.2,0.2,0.4,0.5,0.4C36.9,5.7,37,5.7,37,5.7z M37.2,6.5c-0.3,0-0.5,0.1-0.5,0.4c0,0.2,0.1,0.4,0.4,0.4
			c1,0.1,1.5,0.6,1.6,1.6c0,0.3,0.2,0.4,0.4,0.4c0.2,0,0.4-0.2,0.4-0.5C39.5,7.6,38.4,6.5,37.2,6.5z"/>
	</g>
</g>
<g id="_x32_JUhaz.tif_2_">
	<g>
		<path d="M6.5,24c-0.1,0-0.1,0-0.2,0C6.1,23.9,6,23.7,6,23.4c0-1.2,0-2.4,0-3.6c0-0.2-0.1-0.3-0.2-0.4c-3-1.6-4.5-4.1-4.6-7.5
			c0-1.2,0-2.3,0-3.5c0-0.6,0-1.2,0.2-1.7C2.2,2.8,5.6,0,9.6,0c1.6,0,3.2,0,4.8,0c0.5,0,1,0,1.5,0.1C19.8,0.9,22.5,4,22.8,8
			c0,1.5,0,3,0,4.5c0,0.3-0.1,0.7-0.1,1c-0.6,3.9-4.1,6.8-8,6.9c-1.4,0-2.8,0-4.2,0c-0.2,0-0.4,0.1-0.6,0.2c-1,1-2.1,2.1-3.1,3.1
			C6.7,23.8,6.6,23.9,6.5,24z M5.3,7.5C5.3,8.4,5.6,9.2,6,10c1.2,2.4,3,4.3,5.1,5.8c1,0.7,2,1.3,3.2,1.5c0.7,0.2,1.4,0.2,2-0.4
			c0.4-0.4,0.8-0.8,1.2-1.1c0.5-0.5,0.5-1.3,0-1.8c-0.6-0.6-1.1-1.1-1.7-1.7c-0.7-0.7-1.6-0.5-2,0.4c-0.3,0.6-0.9,1-1.6,0.7
			c-1.4-0.6-2.5-1.6-3-3C9,9.6,9.3,9,10,8.7c0.8-0.3,1-1.3,0.5-1.9C9.9,6.2,9.3,5.6,8.7,5C8.2,4.5,7.4,4.5,6.9,5
			C6.6,5.3,6.3,5.6,6,5.9C5.5,6.4,5.3,6.9,5.3,7.5z M18.7,8.9c0-1.6-0.6-3-1.8-4.1s-2.5-1.5-4.1-1.4c-0.3,0-0.5,0.2-0.4,0.5
			s0.2,0.3,0.5,0.3c0.7,0,1.3,0.1,2,0.3c2.2,0.9,3.5,3.1,3,5.5c-0.1,0.3,0,0.5,0.3,0.6s0.4-0.1,0.5-0.4C18.6,9.7,18.7,9.3,18.7,8.9z
			 M13,5.7c1.1,0,2.1,0.5,2.7,1.4c0.4,0.6,0.6,1.4,0.6,2.1c0,0.3,0.1,0.5,0.4,0.5s0.4-0.2,0.4-0.4c0-0.1,0-0.1,0-0.2
			c0.1-1.8-1.1-3.5-2.9-4c-0.5-0.1-1-0.2-1.4-0.1c-0.3,0-0.5,0.2-0.5,0.4c0,0.2,0.2,0.4,0.5,0.4C12.9,5.7,13,5.7,13,5.7z M13.2,6.5
			c-0.3,0-0.5,0.1-0.5,0.4c0,0.2,0.1,0.4,0.4,0.4c1,0.1,1.5,0.6,1.6,1.6c0,0.3,0.2,0.4,0.4,0.4s0.4-0.2,0.4-0.5
			C15.5,7.6,14.4,6.5,13.2,6.5z"/>
	</g>
</g>
<g id="_x32_JUhaz.tif_1_">
	<g>
		<path fill="#D83E1A" d="M54.5,24c-0.1,0-0.1,0-0.2,0c-0.2-0.1-0.3-0.3-0.3-0.6c0-1.2,0-2.4,0-3.6c0-0.2-0.1-0.3-0.2-0.4
			c-3-1.6-4.5-4.1-4.6-7.5c0-1.2,0-2.3,0-3.5c0-0.6,0-1.2,0.2-1.7C50.2,2.8,53.6,0,57.6,0c1.6,0,3.2,0,4.8,0c0.5,0,1,0,1.5,0.1
			C67.8,0.9,70.5,4,70.8,8c0,1.5,0,3,0,4.5c0,0.3-0.1,0.7-0.1,1c-0.6,3.9-4.1,6.8-8,6.9c-1.4,0-2.8,0-4.2,0c-0.2,0-0.4,0.1-0.6,0.2
			c-1,1-2.1,2.1-3.1,3.1C54.7,23.8,54.6,23.9,54.5,24z M53.3,7.5c0,0.9,0.3,1.7,0.7,2.5c1.2,2.4,3,4.3,5.1,5.8c1,0.7,2,1.3,3.2,1.5
			c0.7,0.2,1.4,0.2,2-0.4c0.4-0.4,0.8-0.8,1.2-1.1c0.5-0.5,0.5-1.3,0-1.8c-0.6-0.6-1.1-1.1-1.7-1.7c-0.7-0.7-1.6-0.5-2,0.4
			c-0.3,0.6-0.9,1-1.6,0.7c-1.4-0.6-2.5-1.6-3-3C57,9.6,57.3,9,58,8.7c0.8-0.3,1-1.3,0.5-1.9c-0.6-0.6-1.2-1.2-1.8-1.8
			c-0.5-0.5-1.3-0.5-1.8,0c-0.3,0.3-0.6,0.6-0.9,0.9C53.5,6.4,53.3,6.9,53.3,7.5z M66.7,8.9c0-1.6-0.6-3-1.8-4.1
			c-1.2-1.1-2.5-1.5-4.1-1.4c-0.3,0-0.5,0.2-0.4,0.5c0.1,0.3,0.2,0.3,0.5,0.3c0.7,0,1.3,0.1,2,0.3c2.2,0.9,3.5,3.1,3,5.5
			c-0.1,0.3,0,0.5,0.3,0.6c0.3,0.1,0.4-0.1,0.5-0.4C66.6,9.7,66.7,9.3,66.7,8.9z M61,5.7c1.1,0,2.1,0.5,2.7,1.4
			c0.4,0.6,0.6,1.4,0.6,2.1c0,0.3,0.1,0.5,0.4,0.5c0.3,0,0.4-0.2,0.4-0.4c0-0.1,0-0.1,0-0.2c0.1-1.8-1.1-3.5-2.9-4
			c-0.5-0.1-1-0.2-1.4-0.1c-0.3,0-0.5,0.2-0.5,0.4c0,0.2,0.2,0.4,0.5,0.4C60.9,5.7,61,5.7,61,5.7z M61.2,6.5c-0.3,0-0.5,0.1-0.5,0.4
			c0,0.2,0.1,0.4,0.4,0.4c1,0.1,1.5,0.6,1.6,1.6c0,0.3,0.2,0.4,0.4,0.4s0.4-0.2,0.4-0.5C63.5,7.6,62.4,6.5,61.2,6.5z"/>
	</g>
</g>
</svg>
