<?xml version="1.0" encoding="utf-8"?>
<!-- Generator: Adobe Illustrator 24.1.0, SVG Export Plug-In . SVG Version: 6.00 Build 0)  -->
<svg version="1.1" id="Слой_1" xmlns="http://www.w3.org/2000/svg" xmlns:xlink="http://www.w3.org/1999/xlink" x="0px" y="0px"
	 viewBox="0 0 9.1 18.9" style="enable-background:new 0 0 9.1 18.9;" xml:space="preserve">
<path d="M8.8,13.9c-0.3-0.3-0.8-0.3-1,0l-2.6,2.6V8.6V0.7C5.2,0.3,4.9,0,4.5,0C4.1,0,3.8,0.3,3.8,0.7v15.7l-2.6-2.6
	c-0.3-0.3-0.8-0.3-1,0c-0.3,0.3-0.3,0.8,0,1l3.9,3.9l0,0c0.3,0.3,0.8,0.3,1.1,0l0,0l3.9-3.9C9.1,14.6,9.1,14.1,8.8,13.9z"/>
</svg>
