<?xml version="1.0" encoding="utf-8"?>
<!-- Generator: Adobe Illustrator 24.1.0, SVG Export Plug-In . SVG Version: 6.00 Build 0)  -->
<svg version="1.2" baseProfile="tiny" id="Слой_1"
	 xmlns="http://www.w3.org/2000/svg" xmlns:xlink="http://www.w3.org/1999/xlink" x="0px" y="0px" viewBox="0 0 24 24"
	 xml:space="preserve">
<g id="ZAzUBr.tif">
	<g>
		<path d="M11.2,0c0.5,0,1,0,1.5,0c0.4,0.1,0.8,0.1,1.2,0.2c2.9,0.5,5.3,1.8,7.2,4.1c2.4,2.8,3.3,6.1,2.7,9.7
			c-0.5,3.1-2.1,5.7-4.6,7.6c-2.6,2-5.6,2.8-8.9,2.3C8,23.6,5.9,22.6,4.1,21c-2.1-1.9-3.4-4.2-3.9-6.9c-0.1-0.4-0.1-0.9-0.2-1.3
			c0-0.5,0-1,0-1.5c0.1-0.4,0.1-0.8,0.2-1.2c0.4-2.5,1.5-4.7,3.3-6.5c1.8-1.8,4-3,6.5-3.4C10.4,0.1,10.8,0.1,11.2,0z M12,17.5
			c2,0,4.1,0,6.1,0c1,0,1.6-0.6,1.6-1.6c0-2.5,0-5.1,0-7.6c0-1-0.6-1.7-1.6-1.7c-4.1,0-8.1,0-12.2,0c-1,0-1.6,0.6-1.6,1.6
			c0,2.5,0,5,0,7.6c0,0.9,0.6,1.7,1.7,1.7C8,17.4,10,17.5,12,17.5z"/>
		<path d="M18.5,8.4c0,0.1,0,0.2,0,0.3c0,2.3,0,4.7,0,7c0,0.4,0,0.5-0.5,0.5c-4,0-8,0-12,0c-0.4,0-0.5,0-0.5-0.5c0-2.3,0-4.7,0-7
			c0-0.1,0-0.2,0-0.3c0.1,0.1,0.2,0.1,0.2,0.2c1.9,1.5,3.8,3,5.8,4.6c0.4,0.3,0.6,0.3,1,0c1.9-1.5,3.8-3,5.7-4.5
			C18.3,8.6,18.3,8.5,18.5,8.4z"/>
		<path d="M6.7,7.8c3.5,0,7,0,10.5,0c-0.1,0.1-0.1,0.1-0.2,0.2c-1.6,1.3-3.3,2.6-4.9,3.9c-0.1,0.1-0.2,0.1-0.4,0
			c-1.6-1.3-3.3-2.6-4.9-3.9C6.9,7.9,6.8,7.9,6.7,7.8z"/>
	</g>
</g>
</svg>
