<?xml version="1.0" encoding="utf-8"?>
<!-- Generator: Adobe Illustrator 24.1.0, SVG Export Plug-In . SVG Version: 6.00 Build 0)  -->
<svg version="1.2" baseProfile="tiny" id="Слой_1"
	 xmlns="http://www.w3.org/2000/svg" xmlns:xlink="http://www.w3.org/1999/xlink" x="0px" y="0px" viewBox="0 0 72 24"
	 xml:space="preserve">
<g id="exyUis.tif">
	<g>
		<path fill="#6E6E6E" d="M35.3,0c0.5,0,0.9,0,1.4,0c0.1,0,0.1,0,0.2,0c2,0.1,3.9,0.7,5.6,1.9c2.9,1.9,4.7,4.6,5.3,8
			c0.1,0.4,0.1,0.9,0.2,1.3c0,0.5,0,0.9,0,1.4c0,0.3-0.1,0.6-0.1,0.9c-0.4,2.8-1.6,5.2-3.7,7.2c-3,2.7-6.4,3.7-10.4,3
			c-2.6-0.5-4.8-1.7-6.5-3.6c-2.7-3-3.7-6.5-3-10.4C24.7,7.1,26,4.9,28,3.1c1.7-1.6,3.7-2.5,6-2.9C34.4,0.1,34.9,0.1,35.3,0z
			 M29.7,8.8c0,0.5,0.2,1.1,0.5,1.9c0.7,1.5,1.6,2.9,2.8,4c1.5,1.5,3.3,2.8,5.4,3.4c0.8,0.2,1.6,0.2,2.3-0.2c0.6-0.3,1-0.7,1.4-1.1
			c0.3-0.3,0.3-0.6,0-0.9c-0.7-0.7-1.4-1.4-2.1-2.1c-0.3-0.3-0.6-0.3-0.9,0c-0.4,0.4-0.8,0.8-1.1,1.1c-0.5,0.5-1,0.5-1.5,0.1
			c-1.3-1-2.5-2.1-3.5-3.4c-0.4-0.6-0.4-1.1,0.1-1.6c0.4-0.4,0.8-0.8,1.2-1.2c0.3-0.3,0.3-0.6,0-0.9c-0.7-0.6-1.4-1.3-2.1-2
			c-0.3-0.3-0.6-0.3-0.9,0c-0.2,0.2-0.4,0.4-0.6,0.6C30.1,7.2,29.7,7.9,29.7,8.8z"/>
	</g>
</g>
<g id="exyUis.tif_1_">
	<g>
		<path fill="#D83E1A" d="M59.3,0c0.5,0,0.9,0,1.4,0c0.1,0,0.1,0,0.2,0c2,0.1,3.9,0.7,5.6,1.9c2.9,1.9,4.7,4.6,5.3,8
			c0.1,0.4,0.1,0.9,0.2,1.3c0,0.5,0,0.9,0,1.4c0,0.3-0.1,0.6-0.1,0.9c-0.4,2.8-1.6,5.2-3.7,7.2c-3,2.7-6.4,3.7-10.4,3
			c-2.6-0.5-4.8-1.7-6.5-3.6c-2.7-3-3.7-6.5-3-10.4C48.7,7.1,50,4.9,52,3.1c1.7-1.6,3.7-2.5,6-2.9C58.4,0.1,58.9,0.1,59.3,0z
			 M53.7,8.8c0,0.5,0.2,1.1,0.5,1.9c0.7,1.5,1.6,2.9,2.8,4c1.5,1.5,3.3,2.8,5.4,3.4c0.8,0.2,1.6,0.2,2.3-0.2c0.6-0.3,1-0.7,1.4-1.1
			c0.3-0.3,0.3-0.6,0-0.9c-0.7-0.7-1.4-1.4-2.1-2.1c-0.3-0.3-0.6-0.3-0.9,0c-0.4,0.4-0.8,0.8-1.1,1.1c-0.5,0.5-1,0.5-1.5,0.1
			c-1.3-1-2.5-2.1-3.5-3.4c-0.4-0.6-0.4-1.1,0.1-1.6c0.4-0.4,0.8-0.8,1.2-1.2c0.3-0.3,0.3-0.6,0-0.9c-0.7-0.6-1.4-1.3-2.1-2
			c-0.3-0.3-0.6-0.3-0.9,0c-0.2,0.2-0.4,0.4-0.6,0.6C54.1,7.2,53.7,7.9,53.7,8.8z"/>
	</g>
</g>
<g id="exyUis.tif_2_">
	<g>
		<path d="M11.3,0c0.5,0,0.9,0,1.4,0c0.1,0,0.1,0,0.2,0c2,0.1,3.9,0.7,5.6,1.9c2.9,1.9,4.7,4.6,5.3,8c0.1,0.4,0.1,0.9,0.2,1.3
			c0,0.5,0,0.9,0,1.4c0,0.3-0.1,0.6-0.1,0.9c-0.4,2.8-1.6,5.2-3.7,7.2c-3,2.7-6.4,3.7-10.4,3C7.2,23.2,5,22,3.3,20.1
			c-2.7-3-3.7-6.5-3-10.4C0.7,7.1,2,4.9,4,3.1c1.7-1.6,3.7-2.5,6-2.9C10.4,0.1,10.9,0.1,11.3,0z M5.7,8.8c0,0.5,0.2,1.1,0.5,1.9
			c0.7,1.5,1.6,2.9,2.8,4c1.5,1.5,3.3,2.8,5.4,3.4c0.8,0.2,1.6,0.2,2.3-0.2c0.6-0.3,1-0.7,1.4-1.1c0.3-0.3,0.3-0.6,0-0.9
			c-0.7-0.7-1.4-1.4-2.1-2.1c-0.3-0.3-0.6-0.3-0.9,0c-0.4,0.4-0.8,0.8-1.1,1.1c-0.5,0.5-1,0.5-1.5,0.1c-1.3-1-2.5-2.1-3.5-3.4
			C8.6,11,8.6,10.5,9.1,10c0.4-0.4,0.8-0.8,1.2-1.2c0.3-0.3,0.3-0.6,0-0.9c-0.7-0.6-1.4-1.3-2.1-2c-0.3-0.3-0.6-0.3-0.9,0
			C7.1,6.1,6.9,6.3,6.7,6.5C6.1,7.2,5.7,7.9,5.7,8.8z"/>
	</g>
</g>
</svg>
