<svg width="19" height="10" viewBox="0 0 19 10" fill="none" xmlns="http://www.w3.org/2000/svg">
<path d="M13.854 0.218665C13.5648 0.509194 13.5659 0.979109 13.8565 1.26826L16.4601 3.85939H8.60116L0.742188 3.85939C0.332277 3.85939 0 4.19166 0 4.60157C0 5.01148 0.332277 5.34376 0.742188 5.34376L16.4602 5.34376L13.8564 7.93488C13.5659 8.22404 13.5648 8.69395 13.8539 8.98448C14.1431 9.27505 14.613 9.27612 14.9036 8.987L18.7816 5.12763C18.7814 5.12786 18.7819 5.12741 18.7816 5.12763C19.0714 4.83848 19.073 4.36634 18.7824 4.07622C18.7826 4.07644 18.7821 4.07599 18.7824 4.07622L14.9036 0.216142C14.6131 -0.0729399 14.1432 -0.0719379 13.854 0.218665Z" fill="#D83E1B"/>
</svg>
