<svg xmlns="http://www.w3.org/2000/svg" viewBox="0 0 63.68 63.66">
    <path fill="#D83E1B"
        d="M46.3,57.74V33.93c0-3.38.88-4.88,2.87-4.91s2.93,1.49,2.93,4.85q0,12.68,0,25.35c0,3.54-.89,4.43-4.4,4.43H4.43C.94,63.65,0,62.73,0,59.25Q0,37.64,0,16c0-3.52.88-4.41,4.41-4.42q12.93,0,25.86,0c.66,0,1.52-.15,1.93.19.93.76,2.28,1.8,2.27,2.71s-1.31,2-2.29,2.71c-.57.4-1.6.17-2.43.17H6V57.74Z" />
    <path fill="#D83E1B"
        d="M57.92,10c-1.17,1.09-1.84,1.67-2.46,2.3L29.77,38c-.47.47-.92.95-1.41,1.4-1.33,1.21-2.85,1.59-4.21.26s-1.09-3,.25-4.37q8.07-8.12,16.17-16.19c4.22-4.21,8.46-8.4,13.1-13-1.17-.12-1.84-.25-2.51-.25-4.14,0-8.29,0-12.43,0-2,0-3.74-.4-3.89-2.84C34.73,1.11,36.16,0,38.67,0Q49.23,0,59.81,0c2.75,0,3.83,1.05,3.85,3.72,0,7.13,0,14.25,0,21.38,0,1.94-.57,3.5-2.78,3.71-1.82.18-2.93-1.21-3-3.74C57.88,20.29,57.92,15.49,57.92,10Z" />
</svg>