<?xml version="1.0" encoding="utf-8"?>
<!-- Generator: Adobe Illustrator 23.0.1, SVG Export Plug-In . SVG Version: 6.00 Build 0)  -->
<svg version="1.1" id="Слой_1" xmlns="http://www.w3.org/2000/svg" xmlns:xlink="http://www.w3.org/1999/xlink" x="0px" y="0px"
	 viewBox="0 0 19 38" style="enable-background:new 0 0 19 38;" xml:space="preserve">
<style type="text/css">
	.st0{fill:#D83E1B;}
</style>
<path d="M13.9,4.7c-0.3,0.3-0.3,0.8,0,1l2.6,2.6H0.7C0.3,8.4,0,8.7,0,9.1s0.3,0.7,0.7,0.7h15.7l-2.6,2.6c-0.3,0.3-0.3,0.8,0,1
	c0.3,0.3,0.8,0.3,1,0l3.9-3.9c0,0,0,0,0,0c0.3-0.3,0.3-0.8,0-1.1c0,0,0,0,0,0l-3.9-3.9C14.6,4.4,14.1,4.4,13.9,4.7z"/>
<path class="st0" d="M13.9,24.1c-0.3,0.3-0.3,0.8,0,1l2.6,2.6H8.6H0.7c-0.4,0-0.7,0.3-0.7,0.7c0,0.4,0.3,0.7,0.7,0.7h15.7l-2.6,2.6
	c-0.3,0.3-0.3,0.8,0,1c0.3,0.3,0.8,0.3,1,0l3.9-3.9c0,0,0,0,0,0c0.3-0.3,0.3-0.8,0-1.1c0,0,0,0,0,0l-3.9-3.9
	C14.6,23.8,14.1,23.8,13.9,24.1z"/>
</svg>
