<svg width="20" height="20" viewBox="0 0 20 20" fill="none" xmlns="http://www.w3.org/2000/svg">
<g clip-path="url(#clip0)">
<path d="M12.5085 18.5714C13.386 19.1321 14.4286 19.3764 15.4638 19.2639C16.499 19.1515 17.4648 18.6889 18.2014 17.9529L18.84 17.3143C19.1253 17.0287 19.2856 16.6415 19.2856 16.2379C19.2856 15.8342 19.1253 15.447 18.84 15.1614L16.1428 12.4643C15.8573 12.1789 15.4701 12.0186 15.0664 12.0186C14.6627 12.0186 14.2755 12.1789 13.99 12.4643V12.4643C13.7042 12.7497 13.3167 12.91 12.9128 12.91C12.5089 12.91 12.1215 12.7497 11.8357 12.4643L7.53567 8.15857C7.25024 7.87276 7.08991 7.48535 7.08991 7.08142C7.08991 6.6775 7.25024 6.29008 7.53567 6.00428V6.00428C7.82102 5.71872 7.98131 5.33155 7.98131 4.92785C7.98131 4.52416 7.82102 4.13698 7.53567 3.85142L4.84424 1.16C4.55869 0.874646 4.17151 0.714355 3.76782 0.714355C3.36412 0.714355 2.97695 0.874646 2.69139 1.16L2.05282 1.8C1.31621 2.53577 0.852818 3.50094 0.739298 4.53587C0.625779 5.5708 0.868929 6.61347 1.42853 7.49142C4.37954 11.8591 8.14081 15.6204 12.5085 18.5714V18.5714Z" stroke="#D83E1B" stroke-width="1.42857" stroke-linecap="round" stroke-linejoin="round"/>
</g>
<defs>
<clipPath id="clip0">
<rect width="20" height="20" fill="white"/>
</clipPath>
</defs>
</svg>
