<svg width="20" height="20" viewBox="0 0 20 20" fill="none" xmlns="http://www.w3.org/2000/svg">
<path d="M14.3572 10.0001C14.3572 10.8573 14.103 11.6953 13.6267 12.4081C13.1505 13.1208 12.4735 13.6764 11.6815 14.0044C10.8896 14.3325 10.0181 14.4183 9.17731 14.2511C8.33654 14.0838 7.56424 13.671 6.95808 13.0649C6.35192 12.4587 5.93912 11.6864 5.77188 10.8456C5.60464 10.0049 5.69048 9.13338 6.01853 8.3414C6.34658 7.54941 6.90212 6.87249 7.61489 6.39623C8.32766 5.91997 9.16565 5.66577 10.0229 5.66577C10.5921 5.66558 11.1558 5.77757 11.6818 5.99532C12.2077 6.21307 12.6856 6.53232 13.0881 6.93484C13.4906 7.33735 13.8099 7.81523 14.0276 8.34118C14.2454 8.86712 14.3574 9.43082 14.3572 10.0001V10.0001Z" stroke="#D83E1B" stroke-width="1.42857" stroke-linecap="round" stroke-linejoin="round"/>
<path d="M14.3572 10.0001V11.8572C14.3572 16.8429 22.1672 12.1429 18.0714 5.37293C17.2469 3.96699 16.0721 2.79879 14.6615 1.98232C13.2508 1.16584 11.6527 0.728982 10.0229 0.714355C8.64909 0.714567 7.29247 1.0196 6.05082 1.60746C4.80917 2.19532 3.71343 3.05136 2.84259 4.11386C1.97175 5.17636 1.34751 6.41886 1.01488 7.75176C0.682256 9.08466 0.649525 10.4748 0.919049 11.8218C1.18857 13.1689 1.75364 14.4394 2.5735 15.5417C3.39337 16.6441 4.44761 17.5507 5.66021 18.1964C6.87282 18.842 8.21358 19.2106 9.58583 19.2754C10.9581 19.3403 12.3276 19.0999 13.5957 18.5715" stroke="#D83E1B" stroke-width="1.42857" stroke-linecap="round" stroke-linejoin="round"/>
</svg>
