<svg width="20" height="20" viewBox="0 0 20 20" fill="none" xmlns="http://www.w3.org/2000/svg">
<g clip-path="url(#clip0)">
<path d="M19.2961 11.578C19.8928 6.55551 19.0094 3.38468 17.4161 1.95051L17.4169 1.94968C14.8452 -0.499491 6.16025 -0.861991 3.08358 2.05968C1.70192 3.48884 1.21525 5.58634 1.16192 8.18301C1.10858 10.7805 1.04525 15.6463 5.57942 16.9663H5.58358L5.57942 18.9822C5.57942 18.9822 5.54858 19.7988 6.07025 19.963C6.66692 20.1563 6.93692 19.7772 8.79275 17.5605C11.8961 17.8297 14.2794 17.213 14.5502 17.123C15.1769 16.913 18.7227 16.4438 19.2961 11.578ZM9.09858 16.1422C9.09858 16.1422 7.13442 18.5913 6.52358 19.2272C6.32358 19.4338 6.10442 19.4147 6.10775 19.0047C6.10775 18.7355 6.12275 15.658 6.12275 15.658C2.27858 14.5563 2.50525 10.413 2.54692 8.24551C2.58858 6.07718 2.98525 4.30134 4.15525 3.10551C6.85442 0.574676 14.4686 1.14051 16.4086 2.96384C18.7802 5.06634 17.9361 11.0063 17.9411 11.2088C17.4536 15.2705 14.5802 15.528 14.0519 15.7038C13.8261 15.7788 11.7302 16.318 9.09858 16.1422V16.1422Z" fill="#D83E1B"/>
<path d="M10.1848 3.5813C9.86401 3.5813 9.86401 4.0813 10.1848 4.08547C12.674 4.10463 14.724 5.83963 14.7465 9.02213C14.7465 9.35797 15.2382 9.3538 15.234 9.01797H15.2332C15.2065 5.5888 12.9682 3.60047 10.1848 3.5813V3.5813Z" fill="#D83E1B"/>
<path d="M13.4592 8.49444C13.4517 8.82611 13.9425 8.84194 13.9467 8.50611C13.9875 6.61527 12.8217 5.05777 10.6308 4.89361C10.31 4.87027 10.2767 5.37444 10.5967 5.39777C12.4967 5.54194 13.4975 6.83861 13.4592 8.49444V8.49444Z" fill="#D83E1B"/>
<path d="M12.9338 10.645C12.5222 10.4067 12.103 10.555 11.9297 10.7892L11.5672 11.2583C11.383 11.4967 11.0388 11.465 11.0388 11.465C8.52716 10.8008 7.8555 8.17251 7.8555 8.17251C7.8555 8.17251 7.82467 7.81667 8.05467 7.62584L8.508 7.25084C8.73466 7.07084 8.878 6.63751 8.64716 6.21167C8.0305 5.09751 7.61633 4.71334 7.4055 4.41834C7.18383 4.14084 6.8505 4.07834 6.50383 4.26584H6.49633C5.7755 4.68751 4.98634 5.47667 5.23884 6.28917C5.66967 7.14584 6.46133 9.87667 8.98466 11.94C10.1705 12.9158 12.0472 13.9158 12.8438 14.1467L12.8513 14.1583C13.6363 14.42 14.3997 13.6 14.8072 12.8575V12.8517C14.988 12.4925 14.928 12.1525 14.6638 11.93C14.1955 11.4733 13.4888 10.9692 12.9338 10.645Z" fill="#D83E1B"/>
<path d="M10.9741 6.75348C11.7749 6.80015 12.1633 7.21848 12.2049 8.07765C12.2199 8.41349 12.7074 8.39015 12.6924 8.05432C12.6391 6.93265 12.0541 6.30765 11.0007 6.24931C10.6799 6.23015 10.6499 6.73431 10.9741 6.75348V6.75348Z" fill="#D83E1B"/>
</g>
<defs>
<clipPath id="clip0">
<rect width="20" height="20" fill="white"/>
</clipPath>
</defs>
</svg>
