<svg id="Слой_1" data-name="Слой 1" xmlns="http://www.w3.org/2000/svg" viewBox="0 0 70.87 70.87"><rect width="70.87" height="70.87" rx="6.89" fill="#e5e5e5"/><path d="M36.55,10.82a25.15,25.15,0,0,1,3.69.28l.28,0A1.87,1.87,0,0,0,40.8,7.4a28.64,28.64,0,0,0-4.25-.31,1.87,1.87,0,0,0,0,3.73Z"/><path d="M46.23,12.8A24.79,24.79,0,0,1,51.6,16a1.81,1.81,0,0,0,1.14.39A1.86,1.86,0,0,0,53.88,13,28.27,28.27,0,0,0,47.7,9.36a1.87,1.87,0,0,0-1.47,3.44Z"/><path d="M59.17,25.72a1.87,1.87,0,0,0,1.72,1.13,1.91,1.91,0,0,0,.73-.15,1.87,1.87,0,0,0,1-2.46A28.27,28.27,0,0,0,59,18.06a1.87,1.87,0,1,0-3,2.3A24.29,24.29,0,0,1,59.17,25.72Z"/><path d="M64.59,31.19a1.87,1.87,0,1,0-3.7.56,25.11,25.11,0,0,1,.27,3.68,24.58,24.58,0,0,1-46,12l5.29-1.32L10.08,35.43,6,49.76l5.46-1.36a28.29,28.29,0,0,0,53.47-13A30,30,0,0,0,64.59,31.19Z"/></svg>