<?xml version="1.0" encoding="utf-8"?>
<!-- Generator: Adobe Illustrator 23.0.1, SVG Export Plug-In . SVG Version: 6.00 Build 0)  -->
<svg version="1.1" id="Слой_1" xmlns="http://www.w3.org/2000/svg" xmlns:xlink="http://www.w3.org/1999/xlink" x="0px" y="0px"
	 viewBox="0 0 64 64" style="enable-background:new 0 0 64 64;" xml:space="preserve">
<style type="text/css">
	.st0{fill:#D83E1B;}
</style>
<title>icon-plus-minus-in-circle</title>
<g>
	<path class="st0" d="M27.2,4.8C21.1-1.5,11.1-1.6,4.8,4.4s-6.5,16.1-0.4,22.3c0.1,0.1,0.3,0.3,0.4,0.4c6.1,6.3,16.1,6.5,22.3,0.4
		s6.5-16.1,0.4-22.3C27.4,5.1,27.3,5,27.2,4.8z M25.6,25.6c-5.3,5.3-13.9,5.3-19.2,0s-5.3-13.9,0-19.2c0,0,0,0,0,0
		c5.3-5.3,13.9-5.3,19.2,0S30.9,20.3,25.6,25.6L25.6,25.6z"/>
	<path class="st0" d="M22.8,14.9H9.2c-0.6,0-1.1,0.5-1.1,1.1c0,0.6,0.5,1.1,1.1,1.1h13.6c0.6,0,1.1-0.5,1.1-1.1
		C23.9,15.4,23.4,14.9,22.8,14.9z"/>
</g>
<g>
	<path class="st0" d="M59.2,4.8c-6.1-6.3-16.1-6.5-22.3-0.4s-6.5,16.1-0.4,22.3c0.1,0.1,0.3,0.3,0.4,0.4c6.1,6.3,16.1,6.5,22.3,0.4
		s6.5-16.1,0.4-22.3C59.4,5.1,59.3,5,59.2,4.8z M57.6,25.6c-5.3,5.3-13.9,5.3-19.2,0s-5.3-13.9,0-19.2c5.3-5.3,13.9-5.3,19.2,0
		S62.9,20.3,57.6,25.6L57.6,25.6L57.6,25.6z"/>
	<path class="st0" d="M54.8,14.9h-5.7V9.2c0-0.6-0.5-1.1-1.1-1.1c-0.6,0-1.1,0.5-1.1,1.1v5.7h-5.7c-0.6,0-1.1,0.5-1.1,1.1
		s0.5,1.1,1.1,1.1h5.7v5.7c0,0.6,0.5,1.1,1.1,1.1c0.6,0,1.1-0.5,1.1-1.1v-5.7h5.7c0.6,0,1.1-0.5,1.1-1.1S55.4,14.9,54.8,14.9z"/>
</g>
<path class="st0" d="M27.6,37.2c-0.1-0.1-0.3-0.3-0.4-0.4c-6.1-6.3-16.1-6.5-22.3-0.4s-6.5,16.1-0.4,22.3c0.1,0.1,0.3,0.3,0.4,0.4
	c6.1,6.3,16.1,6.5,22.3,0.4S33.6,43.5,27.6,37.2z M22.8,49.1H9.2c-0.6,0-1.1-0.5-1.1-1.1c0-0.6,0.5-1.1,1.1-1.1h13.6
	c0.6,0,1.1,0.5,1.1,1.1C23.9,48.6,23.4,49.1,22.8,49.1z"/>
<path class="st0" d="M59.6,37.2c-0.1-0.1-0.3-0.3-0.4-0.4c-6.1-6.3-16.1-6.5-22.3-0.4s-6.5,16.1-0.4,22.3c0.1,0.1,0.3,0.3,0.4,0.4
	c6.1,6.3,16.1,6.5,22.3,0.4C65.5,53.5,65.6,43.5,59.6,37.2z M54.8,49.1h-5.7v5.7c0,0.6-0.5,1.1-1.1,1.1s-1.1-0.5-1.1-1.1v-5.7h-5.7
	c-0.6,0-1.1-0.5-1.1-1.1c0-0.6,0.5-1.1,1.1-1.1h5.7v-5.7c0-0.6,0.5-1.1,1.1-1.1s1.1,0.5,1.1,1.1v5.7h5.7c0.6,0,1.1,0.5,1.1,1.1
	C55.9,48.6,55.4,49.1,54.8,49.1z"/>
</svg>
