<svg width="25" height="25" viewBox="0 0 25 25" fill="none" xmlns="http://www.w3.org/2000/svg">
<path d="M18.1006 0H6.89891C3.09485 0 0 3.095 0 6.89905V18.1008C0 21.905 3.09485 24.9998 6.89891 24.9998H18.1006C21.905 24.9998 24.9998 21.9048 24.9998 18.1008V6.89905C25 3.095 21.905 0 18.1006 0ZM22.7819 18.1008C22.7819 20.6819 20.6819 22.7817 18.1008 22.7817H6.89891C4.31792 22.7819 2.21811 20.6819 2.21811 18.1008V6.89905C2.21811 4.31806 4.31792 2.21811 6.89891 2.21811H18.1006C20.6818 2.21811 22.7817 4.31806 22.7817 6.89905V18.1008H22.7819Z" fill="black"/>
<path d="M12.4998 6.05859C8.94773 6.05859 6.05798 8.94834 6.05798 12.5004C6.05798 16.0524 8.94773 18.942 12.4998 18.942C16.0519 18.942 18.9416 16.0524 18.9416 12.5004C18.9416 8.94834 16.0519 6.05859 12.4998 6.05859ZM12.4998 16.7237C10.1709 16.7237 8.27609 14.8291 8.27609 12.5003C8.27609 10.1713 10.1708 8.27655 12.4998 8.27655C14.8288 8.27655 16.7235 10.1713 16.7235 12.5003C16.7235 14.8291 14.8287 16.7237 12.4998 16.7237Z" fill="black"/>
<path d="M19.212 4.17773C18.7846 4.17773 18.3648 4.35075 18.063 4.65389C17.7597 4.95555 17.5854 5.37551 17.5854 5.80435C17.5854 6.23185 17.7599 6.65166 18.063 6.9548C18.3647 7.25647 18.7846 7.43096 19.212 7.43096C19.6408 7.43096 20.0593 7.25647 20.3625 6.9548C20.6656 6.65166 20.8386 6.2317 20.8386 5.80435C20.8386 5.37551 20.6656 4.95555 20.3625 4.65389C20.0608 4.35075 19.6408 4.17773 19.212 4.17773Z" fill="black"/>
</svg>
