<?xml version="1.0" encoding="utf-8"?>
<!-- Generator: Adobe Illustrator 24.1.0, SVG Export Plug-In . SVG Version: 6.00 Build 0)  -->
<svg version="1.1" id="Слой_1" xmlns="http://www.w3.org/2000/svg" xmlns:xlink="http://www.w3.org/1999/xlink" x="0px" y="0px"
	 viewBox="0 0 25 17.54" style="enable-background:new 0 0 25 17.54;" xml:space="preserve">
<g>
	<path d="M12.45,0c2.57,0.1,5.13,0.19,7.7,0.31c0.6,0.03,1.21,0.11,1.81,0.22c1.44,0.26,2.37,1.24,2.64,2.75
		c0.38,2.09,0.45,4.21,0.38,6.33c-0.05,1.48-0.19,2.96-0.33,4.43c-0.1,1.09-0.54,2.02-1.51,2.64c-0.58,0.37-1.24,0.48-1.9,0.55
		c-2.58,0.27-5.18,0.33-7.77,0.32c-2.6-0.01-5.2-0.09-7.8-0.18c-0.85-0.03-1.69-0.13-2.53-0.26C1.7,16.9,0.7,15.93,0.45,14.46
		c-0.19-1.12-0.29-2.25-0.37-3.38c-0.13-1.83-0.09-3.66,0.06-5.49C0.2,4.74,0.3,3.88,0.48,3.04c0.32-1.5,1.36-2.4,2.88-2.59
		c2.43-0.3,4.88-0.33,7.33-0.37c0.59-0.01,1.18,0,1.77,0C12.45,0.05,12.45,0.03,12.45,0z M10.03,12.55
		c2.17-1.25,4.31-2.48,6.49-3.74c-2.18-1.26-4.32-2.49-6.49-3.74C10.03,7.58,10.03,10.05,10.03,12.55z"/>
</g>
</svg>
