<?xml version="1.0" encoding="utf-8"?>
<!-- Generator: Adobe Illustrator 24.1.0, SVG Export Plug-In . SVG Version: 6.00 Build 0)  -->
<svg version="1.1" id="Слой_1" xmlns="http://www.w3.org/2000/svg" xmlns:xlink="http://www.w3.org/1999/xlink" x="0px" y="0px"
	 viewBox="0 0 383.23 383.17" style="enable-background:new 0 0 383.23 383.17;" xml:space="preserve">
<style type="text/css">
	.st0{fill:#D83E1B;}
</style>
<g>
	<path class="st0" d="M3.73,383.17c-4.13-3.25-4.52-4.59-2.63-9.56c18.15-47.84,36.32-95.68,54.42-143.54
		c1.12-2.96,2.83-4.99,5.65-6.55c18.08-10.05,36.06-20.25,54.08-30.41c1.07-0.6,2.1-1.26,3.48-2.1
		c-4.16-6.59-8.11-13.05-12.26-19.39c-8.03-12.26-14.82-25.01-18.41-39.4C72.42,69.45,116.64,6.73,181.05,0.51
		c56.42-5.45,107.35,33.74,115.92,89.54c4.05,26.38-1.11,51.07-15.33,73.76c-5.62,8.96-11.26,17.9-17.06,27.11
		c1.22,0.78,2.2,1.47,3.24,2.06c17.91,10.09,35.79,20.23,53.77,30.21c3.15,1.75,5.05,4.03,6.32,7.38
		c17.9,47.4,35.91,94.77,53.9,142.14c0.39,1.03,0.96,1.98,1.44,2.97c0,2.5,0,4.99,0,7.49c-2.5,0-4.99,0-7.49,0
		c-0.16-0.18-0.28-0.43-0.48-0.54c-29.39-16.56-58.81-33.08-88.16-49.72c-2.14-1.21-3.57-0.73-5.4,0.3
		c-20.59,11.65-41.22,23.22-61.8,34.88c-8.73,4.95-17.37,10.05-26.05,15.08c-1.5,0-2.99,0-4.49,0c-0.44-0.39-0.82-0.88-1.32-1.16
		c-29.06-16.39-58.14-32.74-87.17-49.19c-1.81-1.03-3.07-0.81-4.73,0.14c-12.33,7.02-24.72,13.95-37.07,20.94
		c-17.21,9.74-34.4,19.51-51.6,29.27C6.23,383.17,4.98,383.17,3.73,383.17z M287.22,106.49c-0.38-4.34-0.6-8.71-1.18-13.03
		c-6.96-52.09-56.03-89.05-107.98-81.39c-67.05,9.89-103.49,84.86-68.61,142.71c24.84,41.19,51.12,81.51,76.81,122.19
		c3.11,4.93,7.57,4.98,10.65,0.11c25.75-40.79,51.57-81.53,77.07-122.47C283.07,140,286.99,123.71,287.22,106.49z M129.4,208.01
		c-0.38,1.44-0.56,2-0.68,2.57c-2.71,12.67-5.39,25.34-8.15,38c-0.84,3.86-3.74,5.81-6.99,4.97c-3.12-0.81-4.67-3.67-3.9-7.38
		c1.21-5.86,2.47-11.7,3.71-17.55c1.67-7.89,3.34-15.77,5.08-24.01c-0.95,0.31-1.44,0.38-1.84,0.61
		c-16.18,9.11-32.37,18.19-48.48,27.42c-1.25,0.71-2.33,2.23-2.86,3.61c-15.83,41.54-31.59,83.1-47.35,124.67
		c-0.4,1.04-0.68,2.13-1.18,3.69c1.04-0.45,1.39-0.57,1.71-0.75c24.32-13.69,48.65-27.36,72.9-41.18c1.35-0.77,2.5-2.71,2.85-4.3
		c3.59-16.17,6.97-32.39,10.48-48.58c0.88-4.05,3.47-5.83,6.87-5.05c3.33,0.76,4.82,3.55,3.96,7.59
		c-3.25,15.35-6.47,30.72-9.85,46.04c-0.62,2.81-0.19,4.32,2.56,5.85c24.5,13.62,48.89,27.44,73.32,41.2
		c1.26,0.71,2.54,1.38,4.03,2.19c0.18-0.93,0.36-1.39,0.36-1.86c0.02-24.2,0.05-48.4-0.06-72.6c0-1.05-1.08-2.23-1.91-3.11
		c-2.45-2.58-5.59-4.68-7.46-7.61c-14.99-23.4-29.76-46.95-44.59-70.46C131.25,210.88,130.54,209.8,129.4,208.01z M197.42,367.64
		c1.49-0.75,2.59-1.24,3.64-1.83c24.54-13.82,49.03-27.71,73.64-41.39c3.01-1.67,3.43-3.3,2.75-6.43
		c-6.02-27.75-11.87-55.54-17.77-83.32c-1.83-8.59-3.69-17.18-5.76-26.77c-1.25,1.94-1.96,3.03-2.66,4.13
		c-14.7,23.3-29.33,46.63-44.16,69.85c-1.83,2.86-4.28,5.61-7.07,7.47c-2.26,1.51-2.84,2.93-2.84,5.37
		c0.06,22.95,0.03,45.91,0.04,68.86C197.24,364.77,197.34,365.98,197.42,367.64z M366.57,364.83c-0.51-1.67-0.69-2.38-0.95-3.06
		c-15.89-41.9-31.77-83.81-47.77-125.68c-0.6-1.56-2.07-3.12-3.54-3.96c-15.46-8.85-31-17.55-46.53-26.29
		c-0.81-0.45-1.69-0.78-2.85-1.31c0.1,1,0.1,1.62,0.22,2.21c7.94,37.4,15.87,74.8,23.94,112.17c0.33,1.53,1.81,3.23,3.23,4.04
		c18.17,10.39,36.42,20.63,54.66,30.9C353.26,357.38,359.55,360.9,366.57,364.83z"/>
	<path class="st0" d="M253.33,106.42c0.15,33.92-27.48,61.79-61.37,61.92c-34.17,0.13-61.93-27.41-62.07-61.59
		c-0.14-33.92,27.47-61.78,61.37-61.91C225.46,44.71,253.18,72.22,253.33,106.42z M242.11,106.42
		c-0.14-28.04-22.88-50.52-50.93-50.36c-27.72,0.16-50.32,23.12-50.05,50.86c0.26,27.91,22.88,50.27,50.74,50.18
		C219.62,157.02,242.24,134.19,242.11,106.42z"/>
	<path class="st0" d="M230.84,107.1c-0.46,22-18.25,39.18-40.12,38.76c-21.4-0.42-38.78-18.46-38.33-39.8
		c0.45-21.99,18.24-39.16,40.12-38.75C213.91,67.72,231.29,85.76,230.84,107.1z M219.63,106.53c-0.04-15.5-12.6-28.02-28.08-28
		c-15.45,0.02-28.01,12.64-27.96,28.11c0.04,15.48,12.63,28.03,28.08,28.01C207.12,134.62,219.67,122,219.63,106.53z"/>
</g>
</svg>
