<svg id="Слой_1" data-name="Слой 1" xmlns="http://www.w3.org/2000/svg" viewBox="0 0 70.87 70.87"><rect width="70.87" height="70.87" rx="6.89" fill="#e5e5e5"/><path d="M7.14,63.78V37.46h26.3V63.78Z"/><path d="M13.22,7.09v3.3H10.47v2.76H7.14V7.09Z"/><path d="M63.72,13.18H60.43V10.43H57.65V7.09h6.07Z"/><path d="M57.65,63.78v-3.3h2.74V57.69h3.33v6.09Z"/><path d="M23.39,7.09v3.28H17.2V7.09Z"/><path d="M53.67,7.09v3.28H47.48V7.09Z"/><path d="M63.72,23.36H60.45v-6.2h3.27Z"/><path d="M63.72,53.7H60.45V47.5h3.27Z"/><path d="M47.48,63.78V60.5h6.19v3.28Z"/><path d="M33.44,7.09v3.28H27.37V7.09Z"/><path d="M43.5,7.09v3.28H37.42V7.09Z"/><path d="M63.72,33.44H60.45V27.35h3.27Z"/><path d="M63.72,43.52H60.45V37.43h3.27Z"/><path d="M37.42,63.78V60.49H43.5v3.29Z"/><path d="M54.18,23.89H50.92V22.54L42.3,31.19h1.31v3.28H36.38V27.25h3.26v1.39L48.32,20H47v-3.3h7.22Z"/><path d="M7.18,17.22h3.25v6.07H7.18Z"/><path d="M7.19,27.35h3.23v6H7.19Z"/></svg>