<svg id="Слой_1" data-name="Слой 1" xmlns="http://www.w3.org/2000/svg" viewBox="0 0 70.87 70.87"><rect width="70.87" height="70.87" rx="6.89" fill="#e5e5e5"/><path d="M39.76,7.09l.88.26a5.33,5.33,0,0,1,3.65,5c0,.58,0,1.17,0,1.84h9.52a4.44,4.44,0,0,1,4.66,4.67c0,1.07,0,2.14,0,3.21a1.76,1.76,0,0,1-1.88,1.86q-21.13,0-42.29,0a1.76,1.76,0,0,1-1.88-1.86,34.55,34.55,0,0,1,.1-4.2,4.27,4.27,0,0,1,4.33-3.67c3,0,6.05,0,9.08,0h.66V12.6a5.3,5.3,0,0,1,4.35-5.42.66.66,0,0,0,.19-.09Zm1,7.07c0-.6,0-1.2,0-1.8A1.74,1.74,0,0,0,39,10.64q-3.57,0-7.14,0A1.66,1.66,0,0,0,30.2,12a16,16,0,0,0,0,2.19Z"/><path d="M35.44,27.46H54.7c.86,0,1,.14.93,1-.2,4.22-.39,8.44-.6,12.66-.28,5.93-.54,11.87-.88,17.8A5.17,5.17,0,0,1,49,63.76c-2,0-4.06,0-6.09,0H22.13a5.23,5.23,0,0,1-5.35-4.35,31,31,0,0,1-.24-3.48q-.36-7.51-.7-15l-.6-12.49c0-.79.1-.95.88-.95ZM24.81,43.37v1.05c0,3.49,0,7,0,10.47a1.77,1.77,0,0,0,3.49.41,3.33,3.33,0,0,0,.05-.77V34.21c0-.77,0-1.55,0-2.32a1.77,1.77,0,1,0-3.54.08C24.8,35.77,24.81,39.57,24.81,43.37Zm8.86,0v1.05c0,3.49,0,7,0,10.47a1.77,1.77,0,0,0,3.49.41,3.33,3.33,0,0,0,.05-.77V34.21c0-.77,0-1.55,0-2.32a1.77,1.77,0,1,0-3.54.08C33.66,35.77,33.67,39.57,33.67,43.37Zm12.4,0V32a1.81,1.81,0,0,0-1.13-1.79A1.78,1.78,0,0,0,42.52,32V49.87c0,1.66,0,3.32,0,5a1.75,1.75,0,0,0,1.15,1.72,1.77,1.77,0,0,0,2.38-1.79Q46.08,49.08,46.07,43.38Z"/></svg>