<?xml version="1.0" encoding="utf-8"?>
<svg version="1.1" xmlns="http://www.w3.org/2000/svg" xmlns:xlink="http://www.w3.org/1999/xlink" x="0px" y="0px"
	 viewBox="0 0 702.9 196" style="enable-background:new 0 0 702.9 196;" xml:space="preserve">

	<path d="M61.8,10.2C68.6,15.9,72,23.7,72,33.7S68.6,51.3,61.8,57s-16.1,8.4-27.9,8.4h-27v30.9H0V1.7h33.9
		C45.7,1.7,55,4.5,61.8,10.2z M56.9,52.5c5.3-4.5,8-10.7,8-19s-2.7-14.5-8-19s-13-6.6-23-6.6h-27v51.2h27
		C43.9,59.2,51.5,57,56.9,52.5L56.9,52.5z"/>
	<path d="M140.8,69.7H85.9l-12,26.6h-7.5l43.5-94.6h6.9l43.5,94.6h-7.5L140.8,69.7z M138.2,63.9L113.4,9.3L88.6,63.9H138.2z"/>
	<path d="M231.4,10.2c6.8,5.7,10.2,13.4,10.2,23.4s-3.4,17.6-10.2,23.3s-16.1,8.4-27.9,8.4h-27v30.9h-6.9V1.7h33.9
		C215.2,1.7,224.6,4.5,231.4,10.2z M226.5,52.5c5.3-4.5,8-10.7,8-19s-2.7-14.5-8-19s-13-6.6-23-6.6h-27v51.2h27
		C213.5,59.2,221.2,57,226.5,52.5L226.5,52.5z"/>
	<path d="M321.9,90.1v6.2h-65.2V1.7H320v6.2h-56.5v37.3h50.4v6.1h-50.4v38.8C263.5,90.1,321.9,90.1,321.9,90.1z"/>
	<path d="M404.6,96.3l-22.5-31.6c-3.1,0.4-6.1,0.6-9.2,0.7h-27v30.9H339V1.7h33.9c11.9,0,21.3,2.8,27.9,8.4S411,23.5,411,33.5
		c0,7.5-1.9,13.8-5.7,18.8c-3.8,5-9.4,8.7-16.4,10.7l23.6,33.1L404.6,96.3L404.6,96.3z M372.7,59.3c10,0,17.8-2.2,23-6.6
		s8-10.8,8-19s-2.7-14.5-8-19s-13-6.6-23-6.6h-27v51.4L372.7,59.3z"/>
	<path fill="#D83E1B" d="M447.8,22.4v20.9h41.7V64h-41.7v32.4h-26.7V1.8h74.1v20.7h-47.4V22.4z"/>
	<path fill="#D83E1B" d="M524.9,91.8C508.9,83.6,499,67,499.3,49c-0.1-8.9,2.2-17.6,6.8-25.2c4.6-7.4,11.1-13.5,18.8-17.6
		c17-8.5,37-8.5,53.9,0c16,8.2,25.9,24.8,25.6,42.8c0.1,8.9-2.2,17.6-6.8,25.2c-4.6,7.4-11.1,13.5-18.8,17.6
		c-8.3,4.3-17.6,6.5-27,6.4C542.5,98.4,533.2,96.2,524.9,91.8z M564.9,72.7c3.9-2.3,7.1-5.5,9.2-9.5c2.3-4.3,3.5-9.2,3.4-14.1
		c0.1-4.9-1-9.8-3.4-14.1c-2.1-4-5.3-7.3-9.2-9.5c-3.9-2.3-8.4-3.5-13-3.4c-4.6-0.1-9.1,1.1-13,3.4s-7.1,5.5-9.2,9.5
		c-2.3,4.3-3.5,9.2-3.4,14.1c-0.1,4.9,1,9.8,3.4,14.1c2.1,4,5.3,7.3,9.2,9.5c3.9,2.3,8.4,3.5,13,3.4
		C556.5,76.1,560.9,74.9,564.9,72.7z"/>
	<path fill="#D83E1B" d="M672.1,96.3L652.4,67L633,96.3h-30.5L637,48.5L604.1,1.7h30.1l19,27.2l18.7-27.2h28.9l-32.9,45.7L703,96.3
		H672.1z"/>
<path fill="#FFFFFF" d="M61.8,108.6c6.8,5.7,10.2,13.5,10.2,23.5s-3.4,17.6-10.2,23.3s-16.1,8.4-27.9,8.4h-27v30.9H0v-94.6h33.9
		C45.7,100.1,55,102.9,61.8,108.6z M56.9,150.9c5.3-4.5,8-10.7,8-19s-2.7-14.5-8-19s-13-6.6-23-6.6h-27v51.2h27
		C43.9,157.6,51.5,155.4,56.9,150.9L56.9,150.9z"/>
	<path fill="#FFFFFF" d="M140.8,168.1H85.9l-12,26.6h-7.5l43.5-94.6h6.9l43.5,94.6h-7.5L140.8,168.1z M138.2,162.3l-24.8-54.6
		l-24.8,54.6H138.2z"/>
	<path fill="#FFFFFF" d="M231.4,108.6c6.8,5.7,10.2,13.4,10.2,23.4s-3.4,17.6-10.2,23.3s-16.1,8.4-27.9,8.4h-27v30.9h-6.9v-94.5h33.9
		C215.2,100.1,224.6,102.9,231.4,108.6z M226.5,150.9c5.3-4.5,8-10.7,8-19s-2.7-14.5-8-19s-13-6.6-23-6.6h-27v51.2h27
		C213.5,157.6,221.2,155.4,226.5,150.9L226.5,150.9z"/>
	<path fill="#FFFFFF" d="M321.9,188.5v6.2h-65.2v-94.6H320v6.2h-56.5v37.3h50.4v6.1h-50.4v38.8C263.5,188.5,321.9,188.5,321.9,188.5z"
		/>
	<path fill="#FFFFFF" d="M404.6,194.7l-22.5-31.6c-3.1,0.4-6.1,0.6-9.2,0.7h-27v30.9H339v-94.6h33.9c11.9,0,21.3,2.8,27.9,8.4
		s10.2,13.4,10.2,23.4c0,7.5-1.9,13.8-5.7,18.8c-3.8,5-9.4,8.7-16.4,10.7l23.6,33.1L404.6,194.7L404.6,194.7z M372.7,157.7
		c10,0,17.8-2.2,23-6.6s8-10.8,8-19s-2.7-14.5-8-19s-13-6.6-23-6.6h-27v51.4L372.7,157.7z"/>
	<path fill="#D83E1B" d="M447.8,120.8v20.9h41.7v20.7h-41.7v32.4h-26.7v-94.6h74.1v20.7h-47.4V120.8z"/>
	<path fill="#D83E1B" d="M524.9,190.2c-16-8.2-25.9-24.8-25.6-42.8c-0.1-8.9,2.2-17.6,6.8-25.2c4.6-7.4,11.1-13.5,18.8-17.6
		c17-8.5,37-8.5,53.9,0c16,8.2,25.9,24.8,25.6,42.8c0.1,8.9-2.2,17.6-6.8,25.2c-4.6,7.4-11.1,13.5-18.8,17.6
		c-8.3,4.3-17.6,6.5-27,6.4C542.5,196.8,533.2,194.6,524.9,190.2z M564.9,171.1c3.9-2.3,7.1-5.5,9.2-9.5c2.3-4.3,3.5-9.2,3.4-14.1
		c0.1-4.9-1-9.8-3.4-14.1c-2.1-4-5.3-7.3-9.2-9.5c-3.9-2.3-8.4-3.5-13-3.4c-4.6-0.1-9.1,1.1-13,3.4c-3.9,2.3-7.1,5.5-9.2,9.5
		c-2.3,4.3-3.5,9.2-3.4,14.1c-0.1,4.9,1,9.8,3.4,14.1c2.1,4,5.3,7.3,9.2,9.5c3.9,2.3,8.4,3.5,13,3.4
		C556.5,174.5,560.9,173.3,564.9,171.1z"/>
	<path fill="#D83E1B" d="M672.1,194.7l-19.7-29.3l-19.4,29.3h-30.5l34.5-47.8l-32.9-46.8h30.1l19,27.2l18.7-27.2h28.9l-32.9,45.7
		l35.1,48.9H672.1z"/>
</svg>
